PathFileType	4	(X/Y/Z)	c:/Users/goper/Files/vsCode/490R/osim_files/A05/A05_Fast_06.trc
DataRate	CameraRate	NumFrames	NumMarkers	Units                	OrigDataRate	OrigDataStartFrame	OrigNumFrames
250.00	250.00	4	36	mm	250.0	1741	2320
                Frame#	Time	LPSIS			LASIS			LTH1			LTH2			LTH3			LTH4			LLFE			LMFE			LSH1			LSH2			LSH3			LSH4			LLMAL			LMMAL			LCAL			LMTP5			LTOE			LMTP1			RPSIS			RASIS			RTH1			RTH2			RTH3			RTH4			RLFE			RMFE			RSH1			RSH2			RSH3			RSH4			RLMAL			RMMAL			RCAL			RMTP1			RTOE			RMTP5		
		X1	Y1	Z1	X2	Y2	Z2	X3	Y3	Z3	X4	Y4	Z4	X5	Y5	Z5	X6	Y6	Z6	X7	Y7	Z7	X8	Y8	Z8	X9	Y9	Z9	X10	Y10	Z10	X11	Y11	Z11	X12	Y12	Z12	X13	Y13	Z13	X14	Y14	Z14	X15	Y15	Z15	X16	Y16	Z16	X17	Y17	Z17	X18	Y18	Z18	X19	Y19	Z19	X20	Y20	Z20	X21	Y21	Z21	X22	Y22	Z22	X23	Y23	Z23	X24	Y24	Z24	X25	Y25	Z25	X26	Y26	Z26	X27	Y27	Z27	X28	Y28	Z28	X29	Y29	Z29	X30	Y30	Z30	X31	Y31	Z31	X32	Y32	Z32	X33	Y33	Z33	X34	Y34	Z34	X35	Y35	Z35	X36	Y36	Z36

1741	6.96000	-3006.63843	1032.63879	360.67133	-3201.41748	996.32581	468.14835	-3138.01465	699.43103	530.98877	-3162.23706	663.91760	533.84778	-3191.89844	724.73743	538.58429	-3209.99951	686.02692	537.11871	-3268.13306	516.72845	520.48907	0.00000	0.00000	0.00000	-3245.66968	417.92102	542.39587	-3249.82349	374.60132	549.86322	-3303.48389	415.72452	521.98810	-3298.59717	371.44992	531.43622	-3291.56958	152.40955	559.33704	-3283.19214	148.09215	468.85217	0.00000	0.00000	0.00000	0.00000	0.00000	0.00000	-3211.11377	82.79987	522.76117	0.00000	0.00000	0.00000	0.00000	0.00000	0.00000	0.00000	0.00000	0.00000	0.00000	0.00000	0.00000	0.00000	0.00000	0.00000	-3184.84277	615.13550	157.67036	-3183.26807	569.04114	171.08911	0.00000	0.00000	0.00000	-3132.11938	506.75589	295.13126	0.00000	0.00000	0.00000	0.00000	0.00000	0.00000	-3094.01050	257.59061	175.06964	-3078.80591	213.24934	180.69986	0.00000	0.00000	0.00000	-3064.79150	140.15729	287.04800	-2958.81689	73.68057	288.10608	-3172.74536	61.17237	275.42252	-3202.62891	68.56369	220.04015	-3131.94165	45.26595	163.62663
1742	6.96400	0.00000	0.00000	0.00000	-3204.97095	995.66144	468.22440	-3141.37305	698.84723	531.32251	-3165.61475	663.33173	534.22729	-3197.98877	725.61945	539.16779	-3213.42871	685.52429	537.18774	-3271.48706	516.22717	520.57416	0.00000	0.00000	0.00000	-3250.76147	417.07816	542.54962	-3255.66431	373.84567	549.99396	-3308.47363	415.80142	521.74902	-3306.56812	372.45953	531.90588	-3300.96997	152.45047	559.20520	0.00000	0.00000	0.00000	0.00000	0.00000	0.00000	0.00000	0.00000	0.00000	0.00000	0.00000	0.00000	0.00000	0.00000	0.00000	0.00000	0.00000	0.00000	0.00000	0.00000	0.00000	0.00000	0.00000	0.00000	0.00000	0.00000	0.00000	-3186.72583	614.60876	157.90344	-3185.07886	568.59052	171.34380	0.00000	0.00000	0.00000	-3133.51123	506.38202	295.35056	0.00000	0.00000	0.00000	0.00000	0.00000	0.00000	-3094.68286	257.34387	175.31689	-3077.11450	212.96796	180.27982	0.00000	0.00000	0.00000	-3064.92749	140.04715	287.27347	-2958.81421	73.63612	288.22299	-3172.76709	61.14502	275.42398	-3202.56299	68.54202	220.03987	-3131.94214	45.26946	163.60901
1743	6.96800	0.00000	0.00000	0.00000	-3208.45581	994.96283	468.21143	-3144.75903	698.17853	531.62891	-3169.09351	662.80023	534.55127	-3201.42261	725.04181	539.28436	-3216.84058	684.96277	537.26746	-3274.98022	515.71252	520.56372	0.00000	0.00000	0.00000	-3255.92236	416.33878	542.69745	-3261.46411	373.12866	550.07745	-3313.50269	415.87497	521.54669	-3312.34399	372.57028	531.72156	-3307.24658	151.39026	557.97308	0.00000	0.00000	0.00000	0.00000	0.00000	0.00000	0.00000	0.00000	0.00000	-2957.60107	-85.11096	474.39212	0.00000	0.00000	0.00000	-3019.92578	1037.09680	277.04047	0.00000	0.00000	0.00000	0.00000	0.00000	0.00000	0.00000	0.00000	0.00000	-3189.48364	614.53674	158.33757	-3186.76465	568.02386	171.52505	0.00000	0.00000	0.00000	-3135.00659	506.03772	295.52908	0.00000	0.00000	0.00000	0.00000	0.00000	0.00000	-3095.21289	257.07224	175.53033	-3079.69019	212.88701	181.11162	0.00000	0.00000	0.00000	-3065.01782	139.92357	287.48117	0.00000	0.00000	0.00000	-3173.64453	61.92709	275.94452	-3202.55859	68.55178	220.03050	-3131.91357	45.24097	163.60025
1744	6.97200	-3016.77710	1031.10889	361.87408	-3211.94678	994.28766	468.20883	-3148.14648	697.56458	532.00519	-3172.57739	662.17004	534.84485	-3204.80811	724.47638	539.44855	-3220.33203	684.41919	537.42059	-3278.66089	515.30151	520.72198	0.00000	0.00000	0.00000	-3261.02881	415.59912	542.78491	-3267.29883	372.59897	550.13818	-3318.51660	415.93689	521.39313	-3315.61206	371.54553	530.78406	-3316.03247	151.67130	557.60400	0.00000	0.00000	0.00000	0.00000	0.00000	0.00000	0.00000	0.00000	0.00000	0.00000	0.00000	0.00000	-3010.69263	113.95238	202.54559	0.00000	0.00000	0.00000	0.00000	0.00000	0.00000	0.00000	0.00000	0.00000	0.00000	0.00000	0.00000	-3190.58374	613.56659	158.33841	-3188.65454	567.56268	171.82784	0.00000	0.00000	0.00000	-3136.40991	505.63165	295.75067	0.00000	0.00000	0.00000	0.00000	0.00000	0.00000	-3095.83325	256.82242	175.72990	-3080.03442	212.68390	181.27049	0.00000	0.00000	0.00000	-3065.13892	139.83684	287.67459	0.00000	0.00000	0.00000	-3172.78296	61.11057	275.49216	-3202.53149	68.49712	220.03758	-3131.89648	45.22976	163.58334
